<svg width="800" height="600" xmlns="http://www.w3.org/2000/svg">
 <!-- Created with Method Draw - http://github.com/duopixel/Method-Draw/ -->
 <g>
  <title>background</title>
  <rect fill="#fff" id="canvas_background" height="602" width="802" y="-1" x="-1"/>
  <g display="none" overflow="visible" y="0" x="0" height="100%" width="100%" id="canvasGrid">
   <rect fill="url(#gridpattern)" stroke-width="0" y="0" x="0" height="100%" width="100%"/>
  </g>
 </g>
 <g>
  <title>Layer 1</title>
  <rect id="svg_1" height="150" width="219" y="46.4375" x="283.5" stroke-width="1.5" stroke="#000" fill="#ce9c31"/>
  <rect id="svg_2" height="150" width="219" y="270.4375" x="37.5" stroke-width="1.5" stroke="#000" fill="#0fffff"/>
  <rect id="svg_3" height="150" width="219" y="270" x="295.5" stroke-width="1.5" stroke="#000" fill="#0fffff"/>
  <rect id="svg_4" height="150" width="219" y="270" x="556.5" stroke-width="1.5" stroke="#000" fill="#0fffff"/>
  <rect id="svg_5" height="86" width="779" y="485.4375" x="16.5" stroke-opacity="null" stroke-width="1.5" stroke="#000" fill="#ce81ef"/>
  <text xml:space="preserve" text-anchor="start" font-family="Helvetica, Arial, sans-serif" font-size="24" id="svg_6" y="86.4375" x="323.5" stroke-opacity="null" stroke-width="0" stroke="#000" fill="#000000">CLI Compiler</text>
  <text xml:space="preserve" text-anchor="start" font-family="Helvetica, Arial, sans-serif" font-size="24" id="svg_8" y="299.4375" x="90.5" stroke-opacity="null" stroke-width="0" stroke="#000" fill="#000000">PARSER</text>
  <text xml:space="preserve" text-anchor="start" font-family="Helvetica, Arial, sans-serif" font-size="24" id="svg_9" y="298.4375" x="339.5" stroke-opacity="null" stroke-width="0" stroke="#000" fill="#000000">ANALYSER</text>
  <text xml:space="preserve" text-anchor="start" font-family="Helvetica, Arial, sans-serif" font-size="24" id="svg_10" y="298.4375" x="577.5" stroke-opacity="null" stroke-width="0" stroke="#000" fill="#000000">CODE EMITTER</text>
  <text xml:space="preserve" text-anchor="start" font-family="Helvetica, Arial, sans-serif" font-size="24" id="svg_11" y="513.4375" x="376.5" stroke-opacity="null" stroke-width="0" stroke="#000" fill="#000000">CORE</text>
  <text xml:space="preserve" text-anchor="start" font-family="Helvetica, Arial, sans-serif" font-size="13" id="svg_12" y="170.4375" x="433" stroke-opacity="null" stroke-width="0" stroke="#000" fill="#000000">cli params</text>
  <text xml:space="preserve" text-anchor="start" font-family="Helvetica, Arial, sans-serif" font-size="13" id="svg_13" y="186.4375" x="480" stroke-opacity="null" stroke-width="0" stroke="#000" fill="#000000">io</text>
  <path d="m277.5,140.4375c-3,-1 -7.96329,-2.16042 -12,-3c-5.95532,-1.23863 -10.98085,-2.12257 -17,-3c-7.97794,-1.16295 -13,-2 -19,-2c-2,0 -6.03874,-0.48055 -9,0c-3.12144,0.50655 -6.22273,1.72398 -10,5c-4.2735,3.70638 -6.19576,6.89171 -10,14c-3.16531,5.91446 -6.44879,11.82425 -9,19c-2.43877,6.85948 -4.21657,16.13747 -6,24c-0.69952,3.08394 -3.34315,8.87605 -5,14c-1.26855,3.92311 -1.31075,7.08025 -2,10c-0.51375,2.17625 -0.63345,3.02248 -1,6c-0.50377,4.09221 -2,10 -3,15c-1,5 -1,10 -1,12c0,2 0,5 0,7c0,1 -0.38269,1.92389 0,1c0.5412,-1.30655 2,-3 2,-3c0,-2 1.07613,-2.61731 2,-3c1.30656,-0.5412 1,-2 1,-2c0,0 0,0 -2,0c0,0 -1,1 -2,2c-1,1 -0.61731,1.07613 -1,2c-0.5412,1.30655 -0.61731,1.07611 -1,2c-0.5412,1.30655 -1,2 -1,2c-1,-1 -2.11214,-2.9183 -5,-7c-2.08247,-2.94336 -2.71413,-4.21167 -5,-7c-0.89659,-1.09367 -2,-3 -3,-4l-1,-1l0,0" id="svg_19" stroke-opacity="null" stroke-width="1.5" stroke="#000" fill="none"/>
  <path d="m405.5,197.4375c0,1 -0.49347,0.87856 -1,4c-0.64072,3.94835 0,8 0,12c0,2 0,7 0,11c0,4 0,7 0,10c0,2 0,3 0,5c0,1 0,2 0,3c0,1 0,1 0,2c0,0 0,1 0,1c0,1 0,2 0,3c0,1 0,2 0,3c0,0 0,1 0,2c0,0 0,1 0,1c0,0 0,0 0,1c0,0 0,1 0,1c0,1 0,1 0,2c0,0 0,1 0,2c0,0 0,0 0,0c0,1 0,1 0,2c0,0 0,1 0,2c0,1 -0.70709,1.29291 0,2c0.70709,0.70709 1,0 1,0c1,0 1,0 2,-1c0,0 0.4588,0.30655 1,-1c0.38269,-0.92389 1.4588,-1.69345 2,-3c0.76538,-1.84775 1,-3 2,-5c0,0 0,-1 0,-1c0,0 -0.29291,0.29289 -1,1c-0.70709,0.70709 -2.07611,1.61731 -3,2c-1.30655,0.5412 -1,2 -1,2c-1,1 -1,2 -1,3c0,0 0,1 0,1c0,0 0,1 0,1c0,0 0,1 0,1c0,0 0,0 0,0c-1,0 -1,0 -2,-1c-2,-2 -3.21167,-2.71411 -6,-5c-2.18735,-1.79318 -4,-4 -6,-5c0,0 -1,-1 -2,-2l-1,-1l0,0" id="svg_20" stroke-opacity="null" stroke-width="1.5" stroke="#000" fill="none"/>
  <path d="m506.5,112.4375c3,0 13.19733,1.25331 41,9c13.10236,3.65073 16,5 18,6c2,1 3,2 5,4c2,2 3.18604,2.69255 5,4c1.14728,0.8269 2.14935,1.47427 3,2c1.9021,1.17557 3.49347,3.87856 4,7c0.32037,1.97418 0,5 0,9c0,2 1,8 2,15c1,7 2,14 2,18c0,2 0,4 0,7c0,2 0,5 0,8c0,2 0,6 0,11c0,4 0,7 0,10c0,3 0,6 0,7c0,2 0,3 0,5c0,1 0,2 0,3c0,0 0,1 0,2c0,0 0.54047,1.0535 1,3c0.51373,2.17625 2,3 3,5c1,2 2.4588,2.69344 3,4c0.38269,0.92387 0.61731,1.07613 1,2c0.5412,1.30656 1,2 1,3c0,1 0.77026,2.02676 1,3c0.51373,2.17624 1,3 1,5c0,0 0,1 0,2c0,0 0,0 0,0c0,0 1,1 1,1c0,0 0.61731,-0.07611 1,-1c0.5412,-1.30655 2.4588,-1.69345 3,-3c0.76538,-1.84775 0.48627,-1.82376 1,-4c0.22974,-0.97324 1,-2 1,-2c1,-1 2,-2 2,-2c0,0 0,0 0,0c0,0 -1,1 -1,1c-1,2 -3.5412,1.69345 -3,3c0.38269,0.92389 1,0 -1,2c0,0 -1,1 -1,1c0,1 0,1 0,2c0,0 0,1 0,1c0,0 0,1 0,1c-1,0 -2,0 -4,0c0,0 -3,0 -5,0c-1,0 -2,0 -3,-1c0,0 0,-1 -1,-1c0,0 0,-1 0,-1c0,0 0,0 0,0l0,-1" id="svg_21" stroke-opacity="null" stroke-width="1.5" stroke="#000" fill="none"/>
  <path d="m298.5,198.4375c-1,0 -1.513,-0.40601 -3,2c-1.66251,2.68999 -3.49622,6.90779 -4,11c-0.12219,0.99251 -1.14429,3.93414 -2,6c-1.21014,2.92157 -2,6 -3,8c-1,2 -1,3 -2,5c-1,2 -2.49347,3.87856 -3,7c-0.48056,2.96126 0,4 0,7c0,3 -0.49347,4.87856 -1,8c-0.48056,2.96126 0,5 0,7c0,4 -0.50171,6.93796 0,13c0.32993,3.98636 1,8 1,11c0,2 0,5 0,8c0,2 0,5 0,6c0,1 0,1 0,2c0,1 0.70709,1.70709 0,1c-0.70709,-0.70709 -1.29291,-0.29291 -2,-1c-0.70709,-0.70709 -0.29291,-1.29291 -1,-2c-1.41422,-1.41422 -1,-1 -1,1c0,3 -0.49829,8.93796 -1,15c-0.41241,4.98297 0,10 0,13c0,4 0,8 0,9c0,4 0,8 0,11c0,4 0,8 0,11c0,4 0,7 0,8c0,3 0,5 0,7c0,2 0,2 0,4c0,0 0,2 0,5c0,3 0,6 0,9c0,1 0,4 0,7c0,3 0,7 0,11c0,1 0,3 0,5c0,1 0,3 0,5c0,2 0.64072,5.05164 0,9c-0.50653,3.12143 -0.49347,4.87857 -1,8c-0.48056,2.96127 1,6 1,10c0,3 0,6 0,7c0,2 0,4 0,6c0,1 0,2 0,3c0,1 0,1 0,2c0,1 0,2 0,2c0,0 0,0 0,1c0,3 0,5 0,9c0,3 0,7 0,8c0,3 0,5 0,6c0,0 1,-1 2,-3c1,-2 1.69345,-4.4588 3,-5c0.92389,-0.38269 1.61731,-1.07611 2,-2c0.5412,-1.30655 0.97324,-1.22977 0,-1c-2.17624,0.51373 -4,3 -5,4c-1,1 -2,2 -2,2c0,1 0,1 -2,0c-2,-1 -4.02676,-1.77023 -5,-2c-2.17624,-0.51373 -3.4588,-1.69345 -4,-3c-0.38269,-0.92389 -1,-2 -1,-2l-1,0" id="svg_22" stroke-opacity="null" stroke-width="1.5" stroke="#000" fill="none"/>
  <path d="m144.5,419.4375c0,1 0,1 0,2c0,2 -0.69351,5.04834 0,10c1.00977,7.20975 4.2242,12.90283 5,15c1.4305,3.867 1.49345,5.87857 2,9c0.48055,2.96127 0,6 0,8c0,2 0,3 0,5c0,1 0,2 0,3c0,1 0,1 0,3c0,1 0,2 0,4c0,2 0,3 0,3c0,1 0,1 0,1c0,0 0.07613,0.38269 1,0c1.30656,-0.5412 1.4588,-1.69345 2,-3c0.38269,-0.92389 1.14935,-2.47427 2,-3c1.90211,-1.17557 2.48625,-3.82376 3,-6c0.22975,-0.97324 1.4588,-0.69345 2,-2c0.38269,-0.92389 -0.29289,-1.70709 -1,-1c-0.70711,0.70709 -0.69255,3.186 -2,5c-0.8269,1.14728 -2,2 -3,3c0,0 -1,1 -2,2c-1,1 -1,1 -1,2c0,0 0,1 0,1c0,0 -1,1 -1,1c0,1 -1,1 -1,1c0,1 -1,0 -2,-2c-1,-2 -3,-3 -4,-4c-2,-2 -4,-4 -4,-4l-1,-1l-1,-1l-1,0" id="svg_23" stroke-opacity="null" stroke-width="1.5" stroke="#000" fill="none"/>
  <path d="m435.5,424.4375c0,0 0.24435,1.01498 0,3c-0.50378,4.09222 -2,10 -2,17c0,7 0,13 0,18c0,3 0,6 0,7c0,3 0,4 0,6c0,2 0,4 0,6c0,1 0,2 0,3c0,1 0,1 0,2c0,0 0.77023,-1.02676 1,-2c0.51373,-2.17624 2,-3 3,-4c1,-1 2.48627,-0.82376 3,-3c0.22977,-0.97324 0,-1 1,-2c0,0 -0.07611,-0.38269 -1,0c-2.61313,1.0824 -4,3 -5,4c-1,1 -1.69345,2.4588 -3,3c-0.92389,0.38269 -2,1 -3,2c-1,1 -1,2 -2,2c0,0 0,0 0,0c0,-1 0,-1 0,-2c0,0 0,-1 0,-1c0,-1 0,-2 0,-2c0,0 0,-1 0,-1c0,0 0,-1 0,-1c0,0 0,0 -1,-1c0,0 0,0 -1,-1l0,0l0,-1" id="svg_24" stroke-opacity="null" stroke-width="1.5" stroke="#000" fill="none"/>
  <path d="m667.5,419.4375c0,0 -0.65472,1.03583 0,7c1.00598,9.16449 3.14771,16.94342 5,22c1.08771,2.96933 1,5 1,8c0,2 0,4 0,7c0,2 0,4 0,5c0,2 0,3 0,3c0,1 0,2 0,3c0,0 0,0 0,1c0,0 0,1 0,2c0,1 0,2 0,3c0,1 0,1 0,2c0,0 0,0 1,-1c1,-1 3.1731,-2.85272 4,-4c1.30743,-1.814 2.4588,-2.69345 3,-4c0.38269,-0.92389 1,-1 1,-2c0,0 0.58112,0.41885 -1,2c-1.58112,1.58115 -3.4588,1.69345 -4,3c-0.38269,0.92389 0,1 0,2c0,1 0,1 0,2c0,0 0,0 0,0c-1,1 -1.29291,0.29291 -2,1c-0.70709,0.70709 -1,1 -1,1c-1,1 -1,1 -2,1c0,0 0,-1 0,-1c0,0 0,-1 0,-1c0,0 -0.4588,0.30655 -1,-1c-0.38269,-0.92389 -1,-1 -2,-2c0,0 0,-1 -1,-2c0,0 0.70709,-0.29291 0,-1c-0.70709,-0.70709 -1,-1 -1,-1c-1,0 -1,-1 -1,-1c0,0 0,0 0,-1c0,0 0,0 0,0c0,0 0,0 0,-1l0,0l0,0l0,0" id="svg_25" stroke-opacity="null" stroke-width="1.5" stroke="#000" fill="#00bf00"/>
  <rect id="svg_26" height="57" width="101" y="505.4375" x="54.5" stroke-opacity="null" stroke-width="1.5" stroke="#000" fill="#00bf00"/>
  <rect id="svg_27" height="57" width="101" y="505.4375" x="177.5" stroke-opacity="null" stroke-width="1.5" stroke="#000" fill="#00bf00"/>
  <text xml:space="preserve" text-anchor="start" font-family="Helvetica, Arial, sans-serif" font-size="18" id="svg_28" y="540.4375" x="91.5" stroke-opacity="null" stroke-width="0" stroke="#000" fill="#000000">ast</text>
  <text style="cursor: move;" xml:space="preserve" text-anchor="start" font-family="Helvetica, Arial, sans-serif" font-size="18" id="svg_29" y="540.4375" x="203.5" stroke-opacity="null" stroke-width="0" stroke="#000" fill="#000000">logging</text>
 </g>
</svg>